<?xml version="1.0" encoding="UTF-8"?>
<svg version="1.1" xmlns="http://www.w3.org/2000/svg" width="209" height="54">
<path d="M0 0 C2.38951234 2.09439328 4.42029639 4.23230791 6 7 C6 7.99 6 8.98 6 10 C6.99 10.33 7.98 10.66 9 11 C9.00386719 11.96099609 9.00386719 11.96099609 9.0078125 12.94140625 C9.27642504 18.94937336 10.3030639 22.31608582 14.4296875 26.72265625 C16.08880313 28.22589514 16.08880313 28.22589514 19 29 C19 29.66 19 30.32 19 31 C13.06 31 7.12 31 1 31 C1 31.66 1 32.32 1 33 C0.34 33 -0.32 33 -1 33 C-1 33.66 -1 34.32 -1 35 C-1.66 35 -2.32 35 -3 35 C-3 35.66 -3 36.32 -3 37 C-8.98941389 40.26329053 -14.69524327 40.6126123 -21.25 38.8125 C-25.12825746 37.49558392 -28.10721037 35.98921596 -31 33 C-31 32.34 -31 31.68 -31 31 C-36.94 31 -42.88 31 -49 31 C-49 30.34 -49 29.68 -49 29 C-48.443125 28.79375 -47.88625 28.5875 -47.3125 28.375 C-42.0216802 25.22910715 -39.52336954 20.81650188 -38 15 C-38.99 15 -39.98 15 -41 15 C-41.33 14.01 -41.66 13.02 -42 12 C-41.2575 11.979375 -40.515 11.95875 -39.75 11.9375 C-36.24726924 10.74338724 -35.83537799 9.09245408 -34.2265625 5.9140625 C-26.61915222 -5.95737393 -11.24514859 -6.64661704 0 0 Z M-31 17 C-31.33 17.66 -31.66 18.32 -32 19 C-25.565 18.505 -25.565 18.505 -19 18 C-19 17.67 -19 17.34 -19 17 C-22.96 17 -26.92 17 -31 17 Z M-5 23 C-4.67 23.66 -4.34 24.32 -4 25 C-3.67 24.34 -3.34 23.68 -3 23 C-3.66 23 -4.32 23 -5 23 Z M-2 23 C-2 23.66 -2 24.32 -2 25 C-0.68 24.34 0.64 23.68 2 23 C0.68 23 -0.64 23 -2 23 Z M-18 25 C-18.33 25.66 -18.66 26.32 -19 27 C-17.68 26.67 -16.36 26.34 -15 26 C-15.99 25.67 -16.98 25.34 -18 25 Z " fill="#031010" transform="translate(183,13)"/>
<path d="M0 0 C2.38951234 2.09439328 4.42029639 4.23230791 6 7 C6 7.99 6 8.98 6 10 C6.99 10.33 7.98 10.66 9 11 C9.495 15.455 9.495 15.455 10 20 C6 18 6 18 5.25 15.875 C5.1675 15.25625 5.085 14.6375 5 14 C4.34 14 3.68 14 3 14 C2.814375 14.8971875 2.814375 14.8971875 2.625 15.8125 C2 18 2 18 0 21 C-2.46800047 19.84826645 -4.04783565 18.95216435 -6 17 C-7.670625 16.5978125 -7.670625 16.5978125 -9.375 16.1875 C-13.45819506 14.84990162 -14.68090572 13.52502331 -17 10 C-18.32 11.65 -19.64 13.3 -21 15 C-24.25543229 14.65120368 -25.01873107 13.97866739 -27.25 11.4375 C-27.8275 10.633125 -28.405 9.82875 -29 9 C-29.31453125 9.5775 -29.6290625 10.155 -29.953125 10.75 C-30.38109375 11.4925 -30.8090625 12.235 -31.25 13 C-31.87648437 14.11375 -31.87648437 14.11375 -32.515625 15.25 C-33.00546875 15.8275 -33.4953125 16.405 -34 17 C-35.32 17 -36.64 17 -38 17 C-38 16.34 -38 15.68 -38 15 C-38.99 15 -39.98 15 -41 15 C-41.33 14.01 -41.66 13.02 -42 12 C-41.2575 11.979375 -40.515 11.95875 -39.75 11.9375 C-36.24726924 10.74338724 -35.83537799 9.09245408 -34.2265625 5.9140625 C-26.61915222 -5.95737393 -11.24514859 -6.64661704 0 0 Z " fill="#EFBE4E" transform="translate(183,13)"/>
<path d="M0 0 C2.475 0.495 2.475 0.495 5 1 C5.495 2.485 5.495 2.485 6 4 C4.35 4 2.7 4 1 4 C1.33 4.33 1.66 4.66 2 5 C3.32 5 4.64 5 6 5 C5.67 7.31 5.34 9.62 5 12 C2.24973583 12.05404449 -0.49946203 12.09369306 -3.25 12.125 C-4.02730469 12.14175781 -4.80460937 12.15851562 -5.60546875 12.17578125 C-12.72431144 12.23662606 -12.72431144 12.23662606 -16 10 C-16.33 10.99 -16.66 11.98 -17 13 C-16.01 13.66 -15.02 14.32 -14 15 C-13.34 14.34 -12.68 13.68 -12 13 C-9.12373171 12.77492616 -6.37546976 12.67569594 -3.5 12.6875 C-2.71496094 12.67138672 -1.92992187 12.65527344 -1.12109375 12.63867188 C1.15625 12.63671875 1.15625 12.63671875 5 13 C7 16 7 16 6.625 18.6875 C6.41875 19.450625 6.2125 20.21375 6 21 C-0.76330781 23.29697246 -6.16611336 23.179949 -13 21 C-15.761286 19.55247464 -17.64093274 18.09694867 -20 16 C-20 15.34 -20 14.68 -20 14 C-22.64 14 -25.28 14 -28 14 C-29.1875 11.25 -29.1875 11.25 -30 8 C-28.9375 5.625 -28.9375 5.625 -27 4 C-24.5625 3.8125 -24.5625 3.8125 -22 4 C-20.65667272 3.70955086 -19.31774196 3.39044206 -18 3 C-17.67 3.66 -17.34 4.32 -17 5 C-12.71 5 -8.42 5 -4 5 C-9.445 4.505 -9.445 4.505 -15 4 C-15 3.34 -15 2.68 -15 2 C-10.05 1.67 -5.1 1.34 0 1 C0 0.67 0 0.34 0 0 Z M-7 8 C-7.33 8.66 -7.66 9.32 -8 10 C-6.68 9.67 -5.36 9.34 -4 9 C-4.99 8.67 -5.98 8.34 -7 8 Z " fill="#0B4F57" transform="translate(172,30)"/>
<path d="M0 0 C0.66 1.32 1.32 2.64 2 4 C1.01 5.485 1.01 5.485 0 7 C2.31 7 4.62 7 7 7 C6.34 6.01 5.68 5.02 5 4 C6.32 3.67 7.64 3.34 9 3 C9.66 4.98 10.32 6.96 11 9 C13.97 9.495 13.97 9.495 17 10 C17 10.66 17 11.32 17 12 C15.35 12.33 13.7 12.66 12 13 C12 13.66 12 14.32 12 15 C11.01 15.33 10.02 15.66 9 16 C8.01 14.68 7.02 13.36 6 12 C4.68 13.65 3.36 15.3 2 17 C-1.25543229 16.65120368 -2.01873107 15.97866739 -4.25 13.4375 C-4.8275 12.633125 -5.405 11.82875 -6 11 C-6.31453125 11.5775 -6.6290625 12.155 -6.953125 12.75 C-7.38109375 13.4925 -7.8090625 14.235 -8.25 15 C-8.87648437 16.11375 -8.87648437 16.11375 -9.515625 17.25 C-10.00546875 17.8275 -10.4953125 18.405 -11 19 C-12.32 19 -13.64 19 -15 19 C-15 18.34 -15 17.68 -15 17 C-15.99 17 -16.98 17 -18 17 C-18.33 16.01 -18.66 15.02 -19 14 C-18.2575 13.979375 -17.515 13.95875 -16.75 13.9375 C-13.25104144 12.74467322 -12.83557602 11.10331809 -11.23828125 7.921875 C-8.96274047 4.39012085 -4.38510349 0 0 0 Z " fill="#DDBA60" transform="translate(160,11)"/>
<path d="M0 0 C1.06347656 -0.01417969 2.12695312 -0.02835938 3.22265625 -0.04296875 C5.9375 0.1875 5.9375 0.1875 7.9375 2.1875 C8.375 5.5625 8.375 5.5625 7.9375 9.1875 C4.7623878 12.64276916 1.40438226 13.94092821 -3.0625 15.1875 C-3.3925 17.4975 -3.7225 19.8075 -4.0625 22.1875 C-5.3825 22.1875 -6.7025 22.1875 -8.0625 22.1875 C-8.81055717 15.16110585 -9.20044954 8.25358191 -9.0625 1.1875 C-5.83852808 0.11284269 -3.38779214 0.02058197 0 0 Z M-2.0625 2.1875 C-2.3925 5.4875 -2.7225 8.7875 -3.0625 12.1875 C-1.7425 11.1975 -0.4225 10.2075 0.9375 9.1875 C1.27147787 6.06163125 1.27147787 6.06163125 0.9375 3.1875 C-0.0525 2.8575 -1.0425 2.5275 -2.0625 2.1875 Z " fill="#010310" transform="translate(12.0625,16.8125)"/>
<path d="M0 0 C0 0.99 0 1.98 0 3 C0.391875 2.484375 0.78375 1.96875 1.1875 1.4375 C1.785625 0.963125 2.38375 0.48875 3 0 C5.6875 0.3125 5.6875 0.3125 8 1 C9.38529821 6.45461169 10.2396943 11.36718401 10 17 C8.0085944 17.38133299 6.00720923 17.71325582 4 18 C3 17 3 17 2.90234375 14.27734375 C2.91394531 13.17519531 2.92554688 12.07304688 2.9375 10.9375 C2.94652344 9.83277344 2.95554687 8.72804688 2.96484375 7.58984375 C2.97644531 6.73519531 2.98804688 5.88054688 3 5 C2.34 5 1.68 5 1 5 C0.01 8.96 -0.98 12.92 -2 17 C-3.32 17.33 -4.64 17.66 -6 18 C-6.33591896 15.72954771 -6.66865065 13.45862367 -7 11.1875 C-7.185625 9.92292969 -7.37125 8.65835937 -7.5625 7.35546875 C-8 4 -8 4 -8 1 C-5.10765685 0.17361624 -3.11257569 0 0 0 Z " fill="#010310" transform="translate(60,22)"/>
<path d="M0 0 C0.78246094 -0.01417969 1.56492187 -0.02835938 2.37109375 -0.04296875 C4.5625 0.1875 4.5625 0.1875 7.5625 2.1875 C8.64901655 7.5295397 8.56191114 11.85730725 7.5625 17.1875 C6.2425 17.5175 4.9225 17.8475 3.5625 18.1875 C3.2325 17.1975 2.9025 16.2075 2.5625 15.1875 C2.005625 15.6825 1.44875 16.1775 0.875 16.6875 C-1.81912983 18.43504367 -3.29125007 18.44968749 -6.4375 18.1875 C-7.0975 16.2075 -7.7575 14.2275 -8.4375 12.1875 C-5.35750054 8.51519295 -3.1892398 7.61947635 1.5625 7.1875 C-0.7475 6.8575 -3.0575 6.5275 -5.4375 6.1875 C-5.7675 4.5375 -6.0975 2.8875 -6.4375 1.1875 C-4.0978331 0.01766655 -2.60358473 0.0213759 0 0 Z M-2.4375 10.1875 C-2.4375 11.5075 -2.4375 12.8275 -2.4375 14.1875 C-0.7875 13.5275 0.8625 12.8675 2.5625 12.1875 C2.5625 11.5275 2.5625 10.8675 2.5625 10.1875 C0.9125 10.1875 -0.7375 10.1875 -2.4375 10.1875 Z " fill="#050717" transform="translate(113.4375,21.8125)"/>
<path d="M0 0 C2.7734375 1.59765625 2.7734375 1.59765625 5 4 C5.26953125 7.234375 5.26953125 7.234375 4.8125 10.75 C4.67457031 11.92046875 4.53664063 13.0909375 4.39453125 14.296875 C4.26433594 15.18890625 4.13414063 16.0809375 4 17 C2.68 17.33 1.36 17.66 0 18 C-0.33 17.01 -0.66 16.02 -1 15 C-1.556875 15.515625 -2.11375 16.03125 -2.6875 16.5625 C-5 18 -5 18 -7.625 18 C-10 17 -10 17 -11.375 14.625 C-12 12 -12 12 -11 9 C-7.52674819 7.8422494 -4.63932552 7.93133348 -1 8 C-1 7.34 -1 6.68 -1 6 C-3.64 6 -6.28 6 -9 6 C-9.33 4.35 -9.66 2.7 -10 1 C-6.85154494 -0.57422753 -3.40781928 -0.66928343 0 0 Z M-5 10 C-5 11.32 -5 12.64 -5 14 C-3.68 13.34 -2.36 12.68 -1 12 C-1 11.34 -1 10.68 -1 10 C-2.32 10 -3.64 10 -5 10 Z " fill="#070920" transform="translate(44,22)"/>
<path d="M0 0 C1.5 1.3125 1.5 1.3125 3 3 C3 3.99 3 4.98 3 6 C3.99 6.33 4.98 6.66 6 7 C6.33 9.97 6.66 12.94 7 16 C3 14 3 14 2.25 11.875 C2.1675 11.25625 2.085 10.6375 2 10 C1.34 10 0.68 10 0 10 C-0.12375 10.598125 -0.2475 11.19625 -0.375 11.8125 C-1 14 -1 14 -3 17 C-5.46800047 15.84826645 -7.04783565 14.95216435 -9 13 C-11.31765729 12.28072705 -13.65095874 11.6090107 -16 11 C-16 10.34 -16 9.68 -16 9 C-15.34 9 -14.68 9 -14 9 C-14 8.34 -14 7.68 -14 7 C-14.66 6.67 -15.32 6.34 -16 6 C-12.98968256 5.06576355 -12.13349732 4.95550089 -9 6 C-8.67 5.01 -8.34 4.02 -8 3 C-5.03 3.99 -2.06 4.98 1 6 C0.67 4.02 0.34 2.04 0 0 Z " fill="#E6BE67" transform="translate(186,17)"/>
<path d="M0 0 C0.66 0 1.32 0 2 0 C2.226875 0.556875 2.45375 1.11375 2.6875 1.6875 C4.36430501 4.64187072 6.57324352 6.63102343 9 9 C9.70125 9.9075 10.4025 10.815 11.125 11.75 C12.87431597 14.25052455 12.87431597 14.25052455 16 15 C16 15.66 16 16.32 16 17 C10.06 17 4.12 17 -2 17 C-2 17.66 -2 18.32 -2 19 C-2.66 19 -3.32 19 -4 19 C-3.79375 18.401875 -3.5875 17.80375 -3.375 17.1875 C-2.69328085 14.71549154 -2.69328085 14.71549154 -5 12 C-4.34 12 -3.68 12 -3 12 C-2.87625 10.7625 -2.7525 9.525 -2.625 8.25 C-2.24253695 5.1237803 -1.69450477 2.71120763 0 0 Z " fill="#0E221C" transform="translate(186,27)"/>
<path d="M0 0 C3.85856124 0.96464031 4.95796599 1.94092518 7.3125 5.25 C9.03565244 8.61925335 9.59265459 11.19007766 9 15 C8 17.375 8 17.375 6 19 C1.87494521 19.45833942 -0.7057007 19.5500772 -4.5 17.9375 C-6.83626308 14.91982685 -6.44061086 12.71372007 -6 9 C-4.52608532 5.35030652 -3.00091319 2.5722113 0 0 Z M2 6 C2 6.66 2 7.32 2 8 C1.34 8 0.68 8 0 8 C-1.76462683 11.08809695 -2 12.23312136 -2 16 C-0.02 15.67 1.96 15.34 4 15 C4.93380961 10.46859347 4.93380961 10.46859347 4 6 C3.34 6 2.68 6 2 6 Z " fill="#03040D" transform="translate(79,21)"/>
<path d="M0 0 C0.99 0 1.98 0 3 0 C2.67 2.64 2.34 5.28 2 8 C0.35 8 -1.3 8 -3 8 C-3.66 11.3 -4.32 14.6 -5 18 C-6.32 18.33 -7.64 18.66 -9 19 C-9.33708908 16.91727106 -9.66953116 14.83378963 -10 12.75 C-10.185625 11.58984375 -10.37125 10.4296875 -10.5625 9.234375 C-11 6 -11 6 -11 2 C-3.25 1 -3.25 1 -1 1 C-0.67 0.67 -0.34 0.34 0 0 Z M-4 3 C-3 5 -3 5 -3 5 Z " fill="#050919" transform="translate(102,21)"/>
<path d="M0 0 C2 2 2 2 2.04345703 4.24658203 C1.94919434 5.15778809 1.85493164 6.06899414 1.7578125 7.0078125 C1.66113281 7.99394531 1.56445312 8.98007812 1.46484375 9.99609375 C1.35269531 11.02863281 1.24054687 12.06117187 1.125 13.125 C1.02058594 14.16527344 0.91617187 15.20554687 0.80859375 16.27734375 C0.54869472 18.85270688 0.27876681 21.42662204 0 24 C-1.32 24.33 -2.64 24.66 -4 25 C-6.25943749 16.95075394 -6.19676277 9.29683005 -6 1 C-3.125 0.375 -3.125 0.375 0 0 Z " fill="#020516" transform="translate(28,15)"/>
<path d="M0 0 C2.97 0.495 2.97 0.495 6 1 C5.67 1.99 5.34 2.98 5 4 C4.34 4 3.68 4 3 4 C3 4.66 3 5.32 3 6 C3.66 6.33 4.32 6.66 5 7 C5 10.20663885 4.85329541 12.90680414 4 16 C3.34 16 2.68 16 2 16 C1.67 16.66 1.34 17.32 1 18 C0.34 16.02 -0.32 14.04 -1 12 C-3.79192205 11.94619422 -6.5828141 11.90642331 -9.375 11.875 C-10.1690625 11.85824219 -10.963125 11.84148438 -11.78125 11.82421875 C-13.85492015 11.80664527 -15.92883241 11.89664832 -18 12 C-18.66 12.66 -19.32 13.32 -20 14 C-20.99 13.34 -21.98 12.68 -23 12 C-24.9896995 11.60986284 -26.99019869 11.26797351 -29 11 C-29 10.67 -29 10.34 -29 10 C-27.02 10 -25.04 10 -23 10 C-22.67 9.01 -22.34 8.02 -22 7 C-21.51015625 7.32742187 -21.0203125 7.65484375 -20.515625 7.9921875 C-16.95730437 9.41772589 -13.51796989 9.21154348 -9.75 9.125 C-9.00492188 9.11597656 -8.25984375 9.10695313 -7.4921875 9.09765625 C-5.66131941 9.07418358 -3.83061762 9.03831525 -2 9 C-1.34 7.68 -0.68 6.36 0 5 C-1.32 4.34 -2.64 3.68 -4 3 C-4 3.66 -4 4.32 -4 5 C-4.66 4.67 -5.32 4.34 -6 4 C-5.67 3.34 -5.34 2.68 -5 2 C-3.35 2 -1.7 2 0 2 C0 1.34 0 0.68 0 0 Z " fill="#07171D" transform="translate(178,32)"/>
<path d="M0 0 C2.475 0.495 2.475 0.495 5 1 C5.33 1.99 5.66 2.98 6 4 C4.35 4 2.7 4 1 4 C1 4.99 1 5.98 1 7 C1.66 7.33 2.32 7.66 3 8 C3 8.66 3 9.32 3 10 C-0.01490557 11.00496852 -2.04181692 11.10335303 -5.1875 11.0625 C-6.08855469 11.05347656 -6.98960937 11.04445313 -7.91796875 11.03515625 C-8.60503906 11.02355469 -9.29210937 11.01195312 -10 11 C-10.103125 10.38125 -10.20625 9.7625 -10.3125 9.125 C-10.87525373 6.63473516 -10.87525373 6.63473516 -14 5 C-10.7 5 -7.4 5 -4 5 C-7.63 4.67 -11.26 4.34 -15 4 C-15 3.34 -15 2.68 -15 2 C-10.05 1.67 -5.1 1.34 0 1 C0 0.67 0 0.34 0 0 Z M-7 8 C-7.33 8.66 -7.66 9.32 -8 10 C-6.68 9.67 -5.36 9.34 -4 9 C-4.99 8.67 -5.98 8.34 -7 8 Z " fill="#0A666B" transform="translate(172,30)"/>
<path d="M0 0 C0.66 0 1.32 0 2 0 C1.95875 0.928125 1.9175 1.85625 1.875 2.8125 C1.72863661 6.15809719 1.72863661 6.15809719 4 9 C4.33 9.66 4.66 10.32 5 11 C3.68 11.33 2.36 11.66 1 12 C0.67 11.01 0.34 10.02 0 9 C-0.556875 9.515625 -1.11375 10.03125 -1.6875 10.5625 C-4 12 -4 12 -6.625 12 C-9 11 -9 11 -10.375 8.625 C-11 6 -11 6 -10 3 C-6.52674819 1.8422494 -3.63932552 1.93133348 0 2 C0 1.34 0 0.68 0 0 Z M-4 4 C-4 5.32 -4 6.64 -4 8 C-2.68 7.34 -1.36 6.68 0 6 C0 5.34 0 4.68 0 4 C-1.32 4 -2.64 4 -4 4 Z " fill="#040614" transform="translate(43,28)"/>
<path d="M0 0 C0.99 0 1.98 0 3 0 C3.66 1.98 4.32 3.96 5 6 C7.97 6.495 7.97 6.495 11 7 C11 7.66 11 8.32 11 9 C9.35 9.33 7.7 9.66 6 10 C6 10.66 6 11.32 6 12 C5.01 12.33 4.02 12.66 3 13 C2.01 11.68 1.02 10.36 0 9 C-0.99 10.485 -0.99 10.485 -2 12 C-2.66 11.67 -3.32 11.34 -4 11 C-4 10.01 -4 9.02 -4 8 C-3.34 8.33 -2.68 8.66 -2 9 C-3.25541557 6.48916886 -4.50063488 6.12874554 -7 5 C-4.36 4.67 -1.72 4.34 1 4 C0.34 3.01 -0.32 2.02 -1 1 C-0.67 0.67 -0.34 0.34 0 0 Z " fill="#F0D082" transform="translate(166,14)"/>
<path d="M0 0 C6.6 0 13.2 0 20 0 C19.67 0.99 19.34 1.98 19 3 C15.00204108 3.95619733 11.29196078 4.1039592 7.1875 4.0625 C6.02605469 4.05347656 4.86460937 4.04445313 3.66796875 4.03515625 C2.78753906 4.02355469 1.90710938 4.01195312 1 4 C0.67 2.68 0.34 1.36 0 0 Z " fill="#068185" transform="translate(158,47)"/>
<path d="M0 0 C0.99 1.32 1.98 2.64 3 4 C1 6 1 6 -2 6.3125 C-5.18242358 6.6708751 -5.18242358 6.6708751 -6.5 9.375 C-7.35948488 12.21974527 -7.35948488 12.21974527 -5 15 C-6 16 -6 16 -8.28515625 16.09765625 C-9.65994141 16.08025391 -9.65994141 16.08025391 -11.0625 16.0625 C-11.98160156 16.05347656 -12.90070313 16.04445313 -13.84765625 16.03515625 C-14.55792969 16.02355469 -15.26820313 16.01195313 -16 16 C-16 15.34 -16 14.68 -16 14 C-15.443125 13.79375 -14.88625 13.5875 -14.3125 13.375 C-10.48647906 11.10006863 -7.79041395 7.72031271 -5.9375 3.6875 C-5 2 -5 2 -2.9375 1.3125 C-2.298125 1.209375 -1.65875 1.10625 -1 1 C-0.67 0.67 -0.34 0.34 0 0 Z " fill="#0A252D" transform="translate(150,28)"/>
<path d="M0 0 C3.26008643 3.16952847 6.22237877 6.39937989 9 10 C6.42786866 11.61949011 5.32330841 12.04408751 2.25 11.625 C1.13625 11.315625 1.13625 11.315625 0 11 C-0.38909985 9.54536519 -0.76088029 8.08608793 -1.125 6.625 C-1.33382812 5.81289063 -1.54265625 5.00078125 -1.7578125 4.1640625 C-1.83773437 3.44992188 -1.91765625 2.73578125 -2 2 C-1.34 1.34 -0.68 0.68 0 0 Z " fill="#279E98" transform="translate(187,30)"/>
<path d="M0 0 C0.33 1.65 0.66 3.3 1 5 C-3.60759823 8.07173215 -8.62811167 8.33884119 -14.0625 7.5625 C-14.701875 7.376875 -15.34125 7.19125 -16 7 C-16 6.67 -16 6.34 -16 6 C-14.64455078 5.94392578 -14.64455078 5.94392578 -13.26171875 5.88671875 C-12.08222656 5.82097656 -10.90273437 5.75523438 -9.6875 5.6875 C-8.51574219 5.62949219 -7.34398437 5.57148437 -6.13671875 5.51171875 C-2.67667168 5.26070163 -2.67667168 5.26070163 0 2 C-4.62 2 -9.24 2 -14 2 C-13.67 1.34 -13.34 0.68 -13 0 C-8.42537741 -1.19811544 -4.61967708 -0.83154187 0 0 Z " fill="#045C5D" transform="translate(178,45)"/>
<path d="M0 0 C2.475 0.495 2.475 0.495 5 1 C5.33 1.99 5.66 2.98 6 4 C4.35 4 2.7 4 1 4 C0.67 4.99 0.34 5.98 0 7 C-0.66 7 -1.32 7 -2 7 C-2 6.34 -2 5.68 -2 5 C-6.29 4.67 -10.58 4.34 -15 4 C-15 3.34 -15 2.68 -15 2 C-10.05 1.67 -5.1 1.34 0 1 C0 0.67 0 0.34 0 0 Z " fill="#0A4C55" transform="translate(172,30)"/>
<path d="M0 0 C0.33 0 0.66 0 1 0 C0.67 5.61 0.34 11.22 0 17 C-1.32 17.33 -2.64 17.66 -4 18 C-4.66 15.03 -5.32 12.06 -6 9 C-4.68 8.34 -3.36 7.68 -2 7 C-0.70079254 3.45411499 -0.70079254 3.45411499 0 0 Z " fill="#01030D" transform="translate(28,22)"/>
<path d="M0 0 C0.66 0.66 1.32 1.32 2 2 C-3.28 2 -8.56 2 -14 2 C-14 2.66 -14 3.32 -14 4 C-9.38 4 -4.76 4 0 4 C-4.22253885 6.11126943 -6.14001523 6.2171997 -10.75 6.125 C-11.92046875 6.10695313 -13.0909375 6.08890625 -14.296875 6.0703125 C-15.63492188 6.03550781 -15.63492188 6.03550781 -17 6 C-17.33 4.35 -17.66 2.7 -18 1 C-4.98368679 -0.31810767 -4.98368679 -0.31810767 0 0 Z " fill="#063039" transform="translate(171,30)"/>
<path d="M0 0 C1.5 1.3125 1.5 1.3125 3 3 C3 3.99 3 4.98 3 6 C3.99 6.33 4.98 6.66 6 7 C6.33 9.97 6.66 12.94 7 16 C5.68 15.34 4.36 14.68 3 14 C2.375 11.9375 2.375 11.9375 2 10 C1.34 9.67 0.68 9.34 0 9 C0.99 8.67 1.98 8.34 3 8 C1.35 8 -0.3 8 -2 8 C-2.33 7.01 -2.66 6.02 -3 5 C-1.68 5.33 -0.36 5.66 1 6 C0.67 4.02 0.34 2.04 0 0 Z " fill="#DDC57E" transform="translate(186,17)"/>
<path d="M0 0 C0.94939453 0.47566406 0.94939453 0.47566406 1.91796875 0.9609375 C6.05311469 2.35504247 9.97580212 2.46070521 14.3125 2.625 C15.14845703 2.66367187 15.98441406 2.70234375 16.84570312 2.7421875 C18.89679259 2.83595159 20.94836515 2.91904245 23 3 C23 3.99 23 4.98 23 6 C22.67 5.67 22.34 5.34 22 5 C19.17583618 4.87336909 16.38705207 4.81479452 13.5625 4.8125 C12.37817383 4.79413086 12.37817383 4.79413086 11.16992188 4.77539062 C9.11192565 4.77012721 7.05437991 4.87793715 5 5 C4.34 5.66 3.68 6.32 3 7 C2.01 6.34 1.02 5.68 0 5 C-1.9896995 4.60986284 -3.99019869 4.26797351 -6 4 C-6 3.67 -6 3.34 -6 3 C-4.02 3 -2.04 3 0 3 C0 2.01 0 1.02 0 0 Z " fill="#010F1E" transform="translate(155,39)"/>
<path d="M0 0 C1.65 0.33 3.3 0.66 5 1 C5 1.33 5 1.66 5 2 C7.97 2.495 7.97 2.495 11 3 C10.01 4.485 10.01 4.485 9 6 C9 5.34 9 4.68 9 4 C8.01 4.66 7.02 5.32 6 6 C6.99 7.485 6.99 7.485 8 9 C4.7 9 1.4 9 -2 9 C-1.484375 8.2575 -0.96875 7.515 -0.4375 6.75 C1.24942772 4.16784546 1.24942772 4.16784546 0.6875 1.6875 C0.460625 1.130625 0.23375 0.57375 0 0 Z " fill="#A08035" transform="translate(160,10)"/>
<path d="M0 0 C2.40892844 0.97112072 4.77283633 1.98816096 7.1171875 3.10546875 C3.81283666 4.22924572 2.0665013 4.00101617 -1.1328125 2.66796875 C-1.83921875 2.38050781 -2.545625 2.09304687 -3.2734375 1.796875 C-3.80453125 1.56871094 -4.335625 1.34054687 -4.8828125 1.10546875 C-4.8828125 1.76546875 -4.8828125 2.42546875 -4.8828125 3.10546875 C-11.5078125 3.23046875 -11.5078125 3.23046875 -14.8828125 2.10546875 C-14.8828125 1.44546875 -14.8828125 0.78546875 -14.8828125 0.10546875 C-10.36836696 -2.15175402 -4.68551962 -1.45390785 0 0 Z " fill="#DDBD70" transform="translate(175.8828125,9.89453125)"/>
<path d="M0 0 C2.90443686 3.53583618 2.90443686 3.53583618 3.4375 6.125 C3.83648408 8.215901 3.83648408 8.215901 6.0625 9.25 C6.701875 9.4975 7.34125 9.745 8 10 C8 10.33 8 10.66 8 11 C5.36 11 2.72 11 0 11 C0 11.66 0 12.32 0 13 C-0.66 13 -1.32 13 -2 13 C-1.79375 12.401875 -1.5875 11.80375 -1.375 11.1875 C-0.69328085 8.71549154 -0.69328085 8.71549154 -3 6 C-2.34 6 -1.68 6 -1 6 C-0.67 4.02 -0.34 2.04 0 0 Z " fill="#062F3A" transform="translate(184,33)"/>
<path d="M0 0 C3 1.625 3 1.625 5 4 C5.3125 7.25 5.3125 7.25 5 10 C3 8 3 8 2.1875 5.4375 C1.795625 4.633125 1.40375 3.82875 1 3 C-1.49675668 2.01666329 -1.49675668 2.01666329 -4 2 C-4.33 2.33 -4.66 2.66 -5 3 C-5 3.99 -5 4.98 -5 6 C-6.32 6 -7.64 6 -9 6 C-9.33 4.35 -9.66 2.7 -10 1 C-6.78797474 -0.60601263 -3.48398802 -0.47296969 0 0 Z " fill="#020312" transform="translate(44,22)"/>
<path d="M0 0 C0.99 0 1.98 0 3 0 C3.09507063 6.43311296 3.15316726 12.65758005 2 19 C1.67 19 1.34 19 1 19 C0.83013455 17.43784452 0.66426036 15.8752548 0.5 14.3125 C0.4071875 13.44238281 0.314375 12.57226562 0.21875 11.67578125 C0.00840136 9.10276661 -0.03719144 6.58015636 0 4 C-0.66 4 -1.32 4 -2 4 C-1 1 -1 1 0 0 Z " fill="#0B1028" transform="translate(5,19)"/>
<path d="M0 0 C0.78246094 -0.01417969 1.56492187 -0.02835938 2.37109375 -0.04296875 C4.5625 0.1875 4.5625 0.1875 7.5625 2.1875 C7.2325 2.8475 6.9025 3.5075 6.5625 4.1875 C5.9025 3.8575 5.2425 3.5275 4.5625 3.1875 C3.02581135 2.96282169 1.48281946 2.77953195 -0.0625 2.625 C-0.87976563 2.54121094 -1.69703125 2.45742188 -2.5390625 2.37109375 C-3.16554688 2.31050781 -3.79203125 2.24992187 -4.4375 2.1875 C-4.4375 2.8475 -4.4375 3.5075 -4.4375 4.1875 C-3.839375 4.001875 -3.24125 3.81625 -2.625 3.625 C-0.4375 3.1875 -0.4375 3.1875 2.5625 4.1875 C2.8925 5.1775 3.2225 6.1675 3.5625 7.1875 C0.5925 6.8575 -2.3775 6.5275 -5.4375 6.1875 C-5.7675 4.5375 -6.0975 2.8875 -6.4375 1.1875 C-4.0978331 0.01766655 -2.60358473 0.0213759 0 0 Z " fill="#010211" transform="translate(113.4375,21.8125)"/>
<path d="M0 0 C1.32 0.33 2.64 0.66 4 1 C4 3.31 4 5.62 4 8 C2.35 8 0.7 8 -1 8 C-1.66 6.68 -2.32 5.36 -3 4 C-2.01 2.68 -1.02 1.36 0 0 Z " fill="#25B3AA" transform="translate(145,34)"/>
<path d="M0 0 C2.05078125 0.03255208 4.1015625 0.06510417 6.15234375 0.09765625 C6.83984375 1.91015625 6.83984375 1.91015625 7.15234375 4.09765625 C5.71484375 5.84765625 5.71484375 5.84765625 4.15234375 7.09765625 C3.16234375 6.76765625 2.17234375 6.43765625 1.15234375 6.09765625 C1.15234375 5.43765625 1.15234375 4.77765625 1.15234375 4.09765625 C0.16234375 4.09765625 -0.82765625 4.09765625 -1.84765625 4.09765625 C-2.17765625 3.10765625 -2.50765625 2.11765625 -2.84765625 1.09765625 C-1.84765625 0.09765625 -1.84765625 0.09765625 0 0 Z " fill="#C6B265" transform="translate(143.84765625,23.90234375)"/>
<path d="M0 0 C-0.33 0.99 -0.66 1.98 -1 3 C-1.66 3 -2.32 3 -3 3 C-3 3.66 -3 4.32 -3 5 C-2.01 5.33 -1.02 5.66 0 6 C0.33 5.67 0.66 5.34 1 5 C2.99958364 4.95919217 5.00045254 4.95745644 7 5 C7.33 6.32 7.66 7.64 8 9 C5.525 8.01 5.525 8.01 3 7 C2.67 7.66 2.34 8.32 2 9 C0.02 9 -1.96 9 -4 9 C-4.33 6.36 -4.66 3.72 -5 1 C-2 0 -2 0 0 0 Z " fill="#083845" transform="translate(153,33)"/>
<path d="M0 0 C0.66 -0.33 1.32 -0.66 2 -1 C2.33 0.98 2.66 2.96 3 5 C2.39671875 4.855625 1.7934375 4.71125 1.171875 4.5625 C0.37265625 4.376875 -0.4265625 4.19125 -1.25 4 C-2.03890625 3.814375 -2.8278125 3.62875 -3.640625 3.4375 C-6.25556002 2.87845172 -6.25556002 2.87845172 -10 3 C-10 2.34 -10 1.68 -10 1 C-10.66 0.67 -11.32 0.34 -12 0 C-11.05125 0.020625 -10.1025 0.04125 -9.125 0.0625 C-0.44444444 -0.11111111 -0.44444444 -0.11111111 0 0 Z " fill="#F3C459" transform="translate(184,18)"/>
<path d="M0 0 C0.66 1.32 1.32 2.64 2 4 C0.68 5.32 -0.64 6.64 -2 8 C-3.98 7.34 -5.96 6.68 -8 6 C-3.38461538 0 -3.38461538 0 0 0 Z " fill="#E9C368" transform="translate(160,11)"/>
<path d="M0 0 C1.32 0 2.64 0 4 0 C3.67 2.31 3.34 4.62 3 7 C-2.28 7 -7.56 7 -13 7 C-12.67 6.34 -12.34 5.68 -12 5 C-7.71 5 -3.42 5 1 5 C1 4.34 1 3.68 1 3 C0.34 2.67 -0.32 2.34 -1 2 C-0.67 1.34 -0.34 0.68 0 0 Z " fill="#094A53" transform="translate(174,35)"/>
<path d="M0 0 C0.66 0.33 1.32 0.66 2 1 C1.34 2.32 0.68 3.64 0 5 C0.99 4.34 1.98 3.68 3 3 C5.6875 2.875 5.6875 2.875 8 3 C7.67 3.66 7.34 4.32 7 5 C6.01 5 5.02 5 4 5 C3.34 6.32 2.68 7.64 2 9 C-0.475 8.01 -0.475 8.01 -3 7 C-1.125 2.25 -1.125 2.25 0 0 Z " fill="#E7C775" transform="translate(150,17)"/>
<path d="M0 0 C1.79275866 3.11910856 2.34290718 5.67682428 2.625 9.25 C2.69976562 10.14203125 2.77453125 11.0340625 2.8515625 11.953125 C2.90054688 12.62859375 2.94953125 13.3040625 3 14 C2.01 14.33 1.02 14.66 0 15 C-0.06058594 14.15695313 -0.12117188 13.31390625 -0.18359375 12.4453125 C-0.26738281 11.34960938 -0.35117188 10.25390625 -0.4375 9.125 C-0.51871094 8.03445312 -0.59992188 6.94390625 -0.68359375 5.8203125 C-0.83001703 3.05271029 -0.83001703 3.05271029 -2 1 C-1.34 0.67 -0.68 0.34 0 0 Z " fill="#0B1026" transform="translate(65,23)"/>
<path d="M0 0 C0.99 0 1.98 0 3 0 C3.09945415 6.11090483 3.0712828 11.97403427 2 18 C1.67 18 1.34 18 1 18 C0.67 12.06 0.34 6.12 0 0 Z " fill="#0B112A" transform="translate(24,18)"/>
<path d="M0 0 C0.66 0 1.32 0 2 0 C2 0.99 2 1.98 2 3 C3.32 3 4.64 3 6 3 C6 3.99 6 4.98 6 6 C5.01 6 4.02 6 3 6 C2.01 7.485 2.01 7.485 1 9 C0.67 7.68 0.34 6.36 0 5 C-1.32 4.67 -2.64 4.34 -4 4 C-2.68 3.34 -1.36 2.68 0 2 C0 1.34 0 0.68 0 0 Z " fill="#040605" transform="translate(184,3)"/>
<path d="M0 0 C2.46278801 2.46278801 2.99771255 4.70676982 4 8 C1.69 8.33 -0.62 8.66 -3 9 C-2.5020163 5.26512223 -2.12508244 3.18762365 0 0 Z " fill="#285249" transform="translate(154,21)"/>
<path d="M0 0 C2.97 0.495 2.97 0.495 6 1 C5.875 2.875 5.875 2.875 5 5 C1.9375 6.25 1.9375 6.25 -1 7 C-0.67 4.69 -0.34 2.38 0 0 Z " fill="#F4C049" transform="translate(171,11)"/>
<path d="M0 0 C2.4375 0.375 2.4375 0.375 5 1 C6 3 6 3 7 5 C5.68 5.33 4.36 5.66 3 6 C2.67 5.01 2.34 4.02 2 3 C1.401875 3.515625 0.80375 4.03125 0.1875 4.5625 C-0.534375 5.036875 -1.25625 5.51125 -2 6 C-2.99 5.67 -3.98 5.34 -5 5 C-4.01 4.67 -3.02 4.34 -2 4 C-0.79117904 1.99983534 -0.79117904 1.99983534 0 0 Z " fill="#00020B" transform="translate(41,34)"/>
<path d="M0 0 C1.18771723 3.42943519 0.80226223 5.37784675 -0.4375 8.75 C-0.72496094 9.54921875 -1.01242188 10.3484375 -1.30859375 11.171875 C-1.53675781 11.77515625 -1.76492187 12.3784375 -2 13 C-2.99 13 -3.98 13 -5 13 C-4.20811546 10.62434637 -3.37654582 8.28226007 -2.5 5.9375 C-2.2421875 5.24527344 -1.984375 4.55304687 -1.71875 3.83984375 C-1 2 -1 2 0 0 Z " fill="#00020C" transform="translate(98,27)"/>
<path d="M0 0 C0.99 0 1.98 0 3 0 C2.67 0.99 2.34 1.98 2 3 C2.66 3.66 3.32 4.32 4 5 C3.625 7.125 3.625 7.125 3 9 C3.66 9 4.32 9 5 9 C5 9.66 5 10.32 5 11 C4.34 11 3.68 11 3 11 C2.67 11.66 2.34 12.32 2 13 C1.20046862 9.71303767 0.90341064 8.28976808 2 5 C1.01 4.67 0.02 4.34 -1 4 C-0.67 2.68 -0.34 1.36 0 0 Z " fill="#072D38" transform="translate(177,37)"/>
<path d="M0 0 C1.23621824 2.47243647 0.98408601 3.77317939 0.6875 6.5 C0.60886719 7.2940625 0.53023437 8.088125 0.44921875 8.90625 C0 11 0 11 -2 13 C-2.33 9.37 -2.66 5.74 -3 2 C-2.01 1.34 -1.02 0.68 0 0 Z " fill="#0D0F2A" transform="translate(57,23)"/>
<path d="M0 0 C0.99 0 1.98 0 3 0 C2.67 2.64 2.34 5.28 2 8 C0 7 0 7 -2 5 C-2 2 -2 2 0 0 Z " fill="#02030B" transform="translate(102,21)"/>
<path d="M0 0 C0.33 1.32 0.66 2.64 1 4 C1.99 3.67 2.98 3.34 4 3 C4.33 3.99 4.66 4.98 5 6 C4.01 6 3.02 6 2 6 C1.01 7.485 1.01 7.485 0 9 C-0.66 8.01 -1.32 7.02 -2 6 C-2.66 6 -3.32 6 -4 6 C-3.67 5.01 -3.34 4.02 -3 3 C-2.01 3.33 -1.02 3.66 0 4 C-0.33 3.01 -0.66 2.02 -1 1 C-0.67 0.67 -0.34 0.34 0 0 Z " fill="#050705" transform="translate(193,10)"/>
<path d="M0 0 C1.32 0 2.64 0 4 0 C4.36923077 5.53846154 4.36923077 5.53846154 2.5 7.875 C1.7575 8.431875 1.7575 8.431875 1 9 C0.34 8.67 -0.32 8.34 -1 8 C-0.4740625 7.13375 -0.4740625 7.13375 0.0625 6.25 C1.14917407 3.64198224 0.93065133 2.60582371 0 0 Z " fill="#0D0E26" transform="translate(14,19)"/>
<path d="M0 0 C3.3 0.33 6.6 0.66 10 1 C10 1.66 10 2.32 10 3 C6.7 3 3.4 3 0 3 C0 2.01 0 1.02 0 0 Z " fill="#11242A" transform="translate(192,41)"/>
<path d="M0 0 C1.60517097 0.08733576 3.20921662 0.19552224 4.8125 0.3125 C6.15248047 0.39951172 6.15248047 0.39951172 7.51953125 0.48828125 C10.30604 1.06313581 11.24135754 1.8206856 13 4 C11.02 4 9.04 4 7 4 C7 3.34 7 2.68 7 2 C4.36 2 1.72 2 -1 2 C-0.67 1.34 -0.34 0.68 0 0 Z " fill="#0A3A40" transform="translate(145,42)"/>
<path d="M0 0 C0.99 0.33 1.98 0.66 3 1 C4.1875 4.0625 4.1875 4.0625 5 7 C3.35 6.67 1.7 6.34 0 6 C-0.38218767 4.34385343 -0.71395102 2.67542976 -1 1 C-0.67 0.67 -0.34 0.34 0 0 Z " fill="#090D21" transform="translate(108,32)"/>
<path d="M0 0 C0.99 1.32 1.98 2.64 3 4 C2.34 4.66 1.68 5.32 1 6 C-1.26274788 5.64644564 -2.95088852 5.02455574 -5 4 C-3.74458443 1.48916886 -2.49936512 1.12874554 0 0 Z " fill="#0C1A19" transform="translate(150,28)"/>
<path d="M0 0 C1.65 0 3.3 0 5 0 C5 0.66 5 1.32 5 2 C6.32 2.33 7.64 2.66 9 3 C7.35 3.66 5.7 4.32 4 5 C2.68 3.35 1.36 1.7 0 0 Z " fill="#ECBA4B" transform="translate(176,26)"/>
<path d="M0 0 C0.99 0.66 1.98 1.32 3 2 C1.02 4.31 -0.96 6.62 -3 9 C-4.36207958 6.27584084 -3.86166193 4.87220643 -3 2 C-2.01 1.34 -1.02 0.68 0 0 Z " fill="#0C0F24" transform="translate(79,23)"/>
<path d="M0 0 C2.475 0.99 2.475 0.99 5 2 C5 3.32 5 4.64 5 6 C3.35 5.67 1.7 5.34 0 5 C0 3.35 0 1.7 0 0 Z " fill="#1EB2AF" transform="translate(187,36)"/>
<path d="M0 0 C2 2 2 2 2.125 5.625 C2.08375 6.73875 2.0425 7.8525 2 9 C0.0625 8.625 0.0625 8.625 -2 8 C-2.33 7.34 -2.66 6.68 -3 6 C-2.34 6 -1.68 6 -1 6 C-0.67 4.02 -0.34 2.04 0 0 Z " fill="#153644" transform="translate(184,33)"/>
<path d="M0 0 C2.4375 0.375 2.4375 0.375 5 1 C5.33 1.66 5.66 2.32 6 3 C3.36 3.66 0.72 4.32 -2 5 C-1.34 3.35 -0.68 1.7 0 0 Z " fill="#EFB545" transform="translate(152,17)"/>
<path d="M0 0 C0.99 0 1.98 0 3 0 C3.66 2.31 4.32 4.62 5 7 C3.125 6.8125 3.125 6.8125 1 6 C-0.25 3.4375 -0.25 3.4375 -1 1 C-0.67 0.67 -0.34 0.34 0 0 Z " fill="#EEC667" transform="translate(166,14)"/>
<path d="M0 0 C0.66 0.33 1.32 0.66 2 1 C2.625 4.0625 2.625 4.0625 3 7 C1.35 7 -0.3 7 -2 7 C-1.34 4.69 -0.68 2.38 0 0 Z " fill="#2B534D" transform="translate(165,22)"/>
<path d="M0 0 C3.375 -0.1875 3.375 -0.1875 7 0 C7.66 0.99 8.32 1.98 9 3 C5.71303767 3.79953138 4.28976808 4.09658936 1 3 C0.67 2.01 0.34 1.02 0 0 Z " fill="#06081A" transform="translate(94,25)"/>
<path d="M0 0 C4.875 1.75 4.875 1.75 6 4 C3.03 4 0.06 4 -3 4 C-2.34 3.67 -1.68 3.34 -1 3 C-0.67 2.01 -0.34 1.02 0 0 Z " fill="#7C592D" transform="translate(178,20)"/>
<path d="M0 0 C0.515625 0.45375 1.03125 0.9075 1.5625 1.375 C4.55991714 3.37327809 7.55251967 4.02429802 11 5 C11.33 5.66 11.66 6.32 12 7 C8.58056494 6.57730231 5.27825654 6.08008783 2 5 C0.375 2.375 0.375 2.375 0 0 Z " fill="#0D0F06" transform="translate(167,25)"/>
<path d="M0 0 C0 0.66 0 1.32 0 2 C0.66 2.33 1.32 2.66 2 3 C0.68 3 -0.64 3 -2 3 C-2 3.66 -2 4.32 -2 5 C-3.32 4.67 -4.64 4.34 -6 4 C-5.67 3.01 -5.34 2.02 -5 1 C-3 0 -3 0 0 0 Z " fill="#D5A236" transform="translate(176,16)"/>
<path d="M0 0 C0 0.33 0 0.66 0 1 C-3.3125 1.6875 -3.3125 1.6875 -7 2 C-8.9375 0.5625 -8.9375 0.5625 -10 -1 C-6.18510326 -2.46726798 -3.70988378 -1.43336419 0 0 Z " fill="#0E0D2E" transform="translate(46,25)"/>
<path d="M0 0 C-0.99 1.32 -1.98 2.64 -3 4 C-6.875 2.25 -6.875 2.25 -8 0 C-2.25 -1.125 -2.25 -1.125 0 0 Z " fill="#B7A46F" transform="translate(186,30)"/>
<path d="M0 0 C1.258125 -0.04125 2.51625 -0.0825 3.8125 -0.125 C4.52019531 -0.14820312 5.22789062 -0.17140625 5.95703125 -0.1953125 C8 0 8 0 11 2 C10.67 2.66 10.34 3.32 10 4 C8.68 3.67 7.36 3.34 6 3 C6 2.34 6 1.68 6 1 C4.02 1 2.04 1 0 1 C0 0.67 0 0.34 0 0 Z " fill="#FBD677" transform="translate(175,25)"/>
<path d="M0 0 C2.475 0.495 2.475 0.495 5 1 C4.67 1.99 4.34 2.98 4 4 C2.68 4 1.36 4 0 4 C0 2.68 0 1.36 0 0 Z " fill="#C1A964" transform="translate(144,15)"/>
<path d="M0 0 C2.475 0.495 2.475 0.495 5 1 C5.33 1.99 5.66 2.98 6 4 C4.35 3.67 2.7 3.34 1 3 C0.67 2.01 0.34 1.02 0 0 Z " fill="#1D4B50" transform="translate(172,30)"/>
<path d="M0 0 C2.64 0 5.28 0 8 0 C8 0.66 8 1.32 8 2 C5.36 2 2.72 2 0 2 C0 1.34 0 0.68 0 0 Z " fill="#11191C" transform="translate(132,35)"/>
<path d="M0 0 C2.64 0 5.28 0 8 0 C8 0.66 8 1.32 8 2 C5.36 2 2.72 2 0 2 C0 1.34 0 0.68 0 0 Z " fill="#0F1B1C" transform="translate(197,35)"/>
<path d="" fill="#000000" transform="translate(0,0)"/>
<path d="" fill="#000000" transform="translate(0,0)"/>
<path d="" fill="#000000" transform="translate(0,0)"/>
<path d="" fill="#000000" transform="translate(0,0)"/>
</svg>
